HIERARCHY
ROOT Hips
{
	OFFSET 0.00 0.00 0.00
	CHANNELS 6 Xposition Yposition Zposition Xrotation Yrotation Zrotation
	JOINT RightUpLeg
	{
		OFFSET -4.47808 0.00000 0.00000
		CHANNELS 3 Xrotation Yrotation Zrotation
		JOINT RightLeg
		{
			OFFSET 0.00000 -16.40577 0.00000
			CHANNELS 3 Xrotation Yrotation Zrotation
			JOINT RightFoot
			{
				OFFSET 0.00000 -14.64414 0.00000
				CHANNELS 3 Xrotation Yrotation Zrotation
				JOINT RightToeBase
				{
					OFFSET 0.00000 -1.50274 5.60831
					CHANNELS 3 Xrotation Yrotation Zrotation
					End Site
					{
						OFFSET 0.00000 0.00000 2.95275
					}
				}
			}
		}
	}
	JOINT LeftUpLeg
	{
		OFFSET 4.47808 0.00000 0.00000
		CHANNELS 3 Xrotation Yrotation Zrotation
		JOINT LeftLeg
		{
			OFFSET 0.00000 -16.40577 0.00000
			CHANNELS 3 Xrotation Yrotation Zrotation
			JOINT LeftFoot
			{
				OFFSET 0.00000 -14.64414 0.00000
				CHANNELS 3 Xrotation Yrotation Zrotation
				JOINT LeftToeBase
				{
					OFFSET 0.00000 -1.50274 5.60831
					CHANNELS 3 Xrotation Yrotation Zrotation
					End Site
					{
						OFFSET 0.00000 0.00000 2.95275
					}
				}
			}
		}
	}
	JOINT Spine
	{
		OFFSET 0.00000 6.06821 0.00000
		CHANNELS 3 Xrotation Yrotation Zrotation
		JOINT RightShoulder
		{
			OFFSET 0.00000 10.01392 0.00000
			CHANNELS 3 Xrotation Yrotation Zrotation
			JOINT RightArm
			{
				OFFSET -7.19022 0.00000 0.00000
				CHANNELS 3 Xrotation Yrotation Zrotation
				JOINT RightForeArm
				{
					OFFSET -10.17747 0.00000 0.00000
					CHANNELS 3 Yrotation Zrotation Xrotation
					JOINT RightHand
					{
						OFFSET -8.39211 0.00000 0.00000
						CHANNELS 3 Xrotation Yrotation Zrotation
						End Site
						{
							OFFSET -3.93700 0.00000 0.00000
						}
						JOINT RightHandThumb1
						{
							OFFSET 0.00000 0.00000 0.00000
							CHANNELS 3 Xrotation Zrotation Yrotation
							End Site
							{
								OFFSET 0.00000 0.00000 3.93700
							}
						}
					}
				}
			}
		}
		JOINT LeftShoulder
		{
			OFFSET 0.00000 10.01392 0.00000
			CHANNELS 3 Xrotation Yrotation Zrotation
			JOINT LeftArm
			{
				OFFSET 7.19022 0.00000 0.00000
				CHANNELS 3 Xrotation Yrotation Zrotation
				JOINT LeftForeArm
				{
					OFFSET 10.17747 0.00000 0.00000
					CHANNELS 3 Yrotation Zrotation Xrotation
					JOINT LeftHand
					{
						OFFSET 8.39211 0.00000 0.00000
						CHANNELS 3 Xrotation Yrotation Zrotation
						End Site
						{
							OFFSET 3.93700 0.00000 0.00000
						}
						JOINT LeftHandThumb1
						{
							OFFSET 0.00000 0.00000 0.00000
							CHANNELS 3 Xrotation Zrotation Yrotation
							End Site
							{
								OFFSET 0.00000 0.00000 3.93700
							}
						}
					}
				}
			}
		}
		JOINT Head
		{
			OFFSET 0.00000 15.77748 0.00000
			CHANNELS 3 Xrotation Yrotation Zrotation
			End Site
			{
				OFFSET 0.00000 4.52755 0.00000
			}
		}
	}
}
MOTION
Frames: 11
Frame Time: 0.008333
 -2.2750 33.1596 0.5068 7.9209 -3.3551 3.6117 -2.5712 -5.8712 -2.0996 0.4048 -0.0000 0.0000 -11.3843 -6.1997 1.0260 4.9835 -0.0000 -0.0000 -2.6324 2.4115 -0.1884 2.0018 -0.0000 -0.0000 -9.0640 8.7783 -14.0853 8.1589 0.0000 -0.0000 -10.3218 -2.4104 -2.5980 4.8040 -23.1711 -27.0338 -36.4539 -6.1332 36.2233 11.9685 0.0000 8.1428 -0.7795 8.9612 4.9917 32.8623 0.0000 -24.3270 -5.6137 24.9422 31.1057 -35.2211 5.8015 -35.0965 -5.2316 -0.0000 1.7623 -0.4600 3.8732 6.7784 33.1476 -0.0000 26.2537 -0.9590 5.4970 -0.1519
 -2.2768 33.1593 0.5090 7.9187 -3.3580 3.6080 -2.5616 -5.8832 -2.0934 0.3955 -0.0000 -0.0000 -11.3836 -6.1768 1.0093 5.0009 -0.0000 0.0000 -2.6279 2.4150 -0.1822 2.0067 0.0000 -0.0000 -9.0746 8.7776 -14.0959 8.1512 0.0000 -0.0000 -10.3251 -2.3914 -2.5990 4.8155 -23.1925 -27.0209 -36.4733 -6.1172 36.2343 11.9699 0.0000 8.1633 -0.7795 8.9323 5.0077 32.8623 0.0000 -24.3270 -5.6181 24.9418 31.1090 -35.1910 5.7872 -35.0788 -5.2432 -0.0000 1.7264 -0.4579 3.8603 6.7701 33.1476 -0.0000 26.2537 -0.9834 5.4812 -0.1127
 -2.2780 33.1590 0.5108 7.9145 -3.3583 3.6035 -2.5541 -5.8878 -2.0882 0.3958 -0.0000 0.0000 -11.3838 -6.1827 1.0503 4.9676 -0.0000 -0.0000 -2.6270 2.4135 -0.1771 2.0191 -0.0000 -0.0000 -9.0820 8.7810 -14.0608 8.1270 -0.0000 0.0000 -10.3250 -2.3795 -2.5957 4.8191 -23.1890 -27.0172 -36.4614 -6.1090 36.2408 11.9702 0.0000 8.1607 -0.7733 8.9082 4.9818 32.8623 0.0000 -24.3270 -5.6147 24.9584 31.1041 -35.2482 5.7998 -35.0598 -5.2236 -0.0000 1.7971 -0.4536 3.8713 6.6877 33.1476 -0.0000 26.2537 -1.0033 5.5196 -0.0621
 -2.2789 33.1589 0.5125 7.9099 -3.3617 3.6049 -2.5443 -5.8771 -2.0880 0.3919 -0.0000 -0.0000 -11.3794 -6.1796 1.0213 4.9469 0.0000 0.0000 -2.6233 2.4042 -0.1771 2.0297 -0.0000 -0.0000 -9.0911 8.8014 -14.0900 8.1650 0.0000 -0.0000 -10.3268 -2.3637 -2.6054 4.8177 -23.1724 -27.0063 -36.4462 -6.1188 36.2377 11.9725 0.0000 8.1466 -0.7733 8.8918 4.9903 32.8623 0.0000 -24.3270 -5.6202 24.9830 31.1182 -35.2704 5.7790 -35.0584 -5.2008 -0.0000 1.8017 -0.4467 3.8433 6.6344 33.1476 -0.0000 26.2537 -1.0109 5.5324 -0.0228
 -2.2815 33.1585 0.5145 7.9083 -3.3582 3.5998 -2.5306 -5.8893 -2.0792 0.3769 0.0000 0.0000 -11.3750 -6.1707 1.0370 4.9748 -0.0000 0.0000 -2.6208 2.3930 -0.1683 2.0344 -0.0000 -0.0000 -9.0972 8.8113 -14.0915 8.1679 0.0000 0.0000 -10.3353 -2.3399 -2.6090 4.8164 -23.1789 -27.0049 -36.4377 -6.1298 36.2573 11.9769 0.0000 8.1416 -0.7669 8.8137 4.9930 32.8623 0.0000 -24.3270 -5.6214 24.9696 31.1257 -35.2228 5.7331 -35.0392 -5.1791 -0.0000 1.7433 -0.4440 3.8472 6.5881 33.1476 -0.0000 26.2537 -1.0121 5.5121 0.0077
 -2.2832 33.1581 0.5172 7.8963 -3.3602 3.6025 -2.5122 -5.8887 -2.0791 0.3734 -0.0000 0.0000 -11.3812 -6.1793 1.0418 5.0182 -0.0000 0.0000 -2.6040 2.3861 -0.1698 2.0344 0.0000 0.0000 -9.1016 8.8195 -14.0854 8.1804 0.0000 0.0000 -10.3320 -2.3178 -2.6218 4.8396 -23.1901 -26.9797 -36.4387 -6.1118 36.2659 11.9648 0.0000 8.0879 -0.7569 8.7823 4.9454 32.8623 0.0000 -24.3270 -5.6142 24.9640 31.1231 -35.2027 5.6882 -35.0084 -5.1711 -0.0000 1.7012 -0.4420 3.8801 6.5041 33.1476 -0.0000 26.2537 -1.0136 5.4954 0.0482
 -2.2855 33.1576 0.5191 7.8892 -3.3594 3.5972 -2.4949 -5.8862 -2.0697 0.3612 -0.0000 0.0000 -11.3801 -6.1811 1.0356 5.0056 0.0000 -0.0000 -2.5978 2.3694 -0.1613 2.0453 0.0000 -0.0000 -9.1159 8.8401 -14.0754 8.2674 0.0000 -0.0000 -10.3289 -2.3062 -2.6209 4.8566 -23.1980 -26.9686 -36.4628 -6.1174 36.2847 11.9475 0.0000 8.0867 -0.7482 8.7701 4.8958 32.8623 0.0000 -24.3270 -5.6244 24.9698 31.1258 -35.1844 5.6434 -34.9910 -5.1436 -0.0000 1.6543 -0.4444 3.9214 6.4706 33.1476 -0.0000 26.2537 -1.0175 5.4850 0.0763
 -2.2874 33.1571 0.5214 7.8897 -3.3575 3.5947 -2.4862 -5.8855 -2.0645 0.3534 -0.0000 0.0000 -11.3793 -6.1737 1.0210 5.0155 0.0000 -0.0000 -2.5997 2.3637 -0.1561 2.0481 0.0000 -0.0000 -9.1284 8.8415 -14.0089 8.2553 -0.0000 -0.0000 -10.3409 -2.2809 -2.6215 4.8582 -23.1993 -26.9686 -36.4500 -6.1346 36.2963 11.9572 0.0000 8.1151 -0.7505 8.7629 4.9143 32.8623 0.0000 -24.3270 -5.5970 25.0026 31.1391 -35.1925 5.5904 -35.0228 -5.1071 -0.0000 1.5861 -0.4512 3.9548 6.5132 33.1476 -0.0000 26.2537 -1.0108 5.4736 0.0905
 -2.2898 33.1567 0.5232 7.8925 -3.3512 3.5899 -2.4808 -5.9123 -2.0552 0.3442 0.0000 -0.0000 -11.3749 -6.1568 1.0206 4.9895 0.0000 0.0000 -2.6037 2.3470 -0.1507 2.0594 -0.0000 0.0000 -9.1357 8.8589 -14.0616 8.1727 0.0000 0.0000 -10.3503 -2.2658 -2.6165 4.8445 -23.2044 -26.9702 -36.4212 -6.1352 36.3134 11.9601 0.0000 8.0895 -0.7492 8.8065 4.8820 32.8623 0.0000 -24.3270 -5.5865 25.0029 31.1289 -35.1695 5.5407 -35.0001 -5.0782 -0.0000 1.5410 -0.4452 3.9441 6.4454 33.1476 -0.0000 26.2537 -1.0116 5.4479 0.0971
 -2.2922 33.1563 0.5258 7.8854 -3.3448 3.5887 -2.4576 -5.9259 -2.0492 0.3204 0.0000 -0.0000 -11.3661 -6.1478 1.0175 4.9619 -0.0000 0.0000 -2.6002 2.3447 -0.1464 2.0767 -0.0000 -0.0000 -9.1530 8.8561 -14.0654 8.1819 0.0000 0.0000 -10.3493 -2.2530 -2.6215 4.8749 -23.2350 -26.9495 -36.4460 -6.1231 36.3428 11.9548 0.0000 8.0724 -0.7533 8.8249 4.8988 32.8623 0.0000 -24.3270 -5.6083 24.9874 31.1486 -35.1347 5.5236 -34.9881 -5.0571 -0.0000 1.5179 -0.4415 3.9613 6.3642 33.1476 -0.0000 26.2537 -1.0126 5.4360 0.1069
 -2.2935 33.1564 0.5268 7.8955 -3.3409 3.5903 -2.4614 -5.9225 -2.0492 0.3142 0.0000 -0.0000 -11.3638 -6.1527 1.0248 4.9975 -0.0000 0.0000 -2.6164 2.3278 -0.1455 2.0916 -0.0000 0.0000 -9.1554 8.8642 -14.0445 8.1542 -0.0000 -0.0000 -10.3683 -2.2400 -2.6242 4.8814 -23.2422 -26.9354 -36.4284 -6.1046 36.3573 11.9535 0.0000 8.0587 -0.7581 8.8299 4.9270 32.8623 0.0000 -24.3270 -5.5968 24.9974 31.1509 -35.1261 5.5041 -34.9756 -5.0406 -0.0000 1.5159 -0.4301 3.9120 6.2793 33.1476 -0.0000 26.2537 -1.0051 5.4312 0.1145
